# xmcd CD database file
#
# Track frame offsets:
#	150
#	12428
#	24978
#	39071
#	51163
#	63870
#	76505
#	89498
#	101116
#	113184
#	122906
#	138438
#	149553
#	161694
#	175403
#	188214
#	201543
#	214332
#
# Disc length: 3092 seconds
#
# Revision: 0
# Processed by: cddbd v1.5.1PL2 Copyright (c) Steve Scherf et al.
# Submitted via: Feurio! 1.68 - http://www.feurio.com
#
DISCID=020c1212
DTITLE=Various Artist - Texas Down Home Blues 1948-1952 - CD2
DYEAR=1900
DGENRE=Blues
TTITLE0=Sam 'Suitcase' Johnson - Sam's Coming Home
TTITLE1=Willie Lane - Howling Wolf
TTITLE2=Ernest Lewis - Lou Della
TTITLE3=Alex Moore - Neglected Woman
TTITLE4=Manny Nichols - Forgive Me
TTITLE5=Frankie Lee Sims - Don't Forget Me Baby
TTITLE6=Thunder Smith - Low Down Dirty Ways
TTITLE7=Sonny Boy (Holmes) - TNT Woman
TTITLE8=Luther Stoneham - January 11, 1949 Blues
TTITLE9=The Sugarman - Which Woman Do I Love ?
TTITLE10=Nat Terry - Take It Easy
TTITLE11=Andy Thomas - I Love My Baby
TTITLE12=Jesse Thomas - Mountain Key Blues
TTITLE13=James Tisdom - Winehead Swing
TTITLE14=Mercy Dee Walton - One Room Country Shack
TTITLE15=Peter Warfield - Morning Train Blues
TTITLE16=L.C.Williams - The Lazy J
TTITLE17=Little Son Willis - Skin And Bones
EXTD=
EXTT0=
EXTT1=
EXTT2=
EXTT3=
EXTT4=
EXTT5=
EXTT6=
EXTT7=
EXTT8=
EXTT9=
EXTT10=
EXTT11=
EXTT12=
EXTT13=
EXTT14=
EXTT15=
EXTT16=
EXTT17=
PLAYORDER=
